<?xml version="1.0" encoding="UTF-8"?>
<!DOCTYPE svg PUBLIC "-//W3C//DTD SVG 1.1//EN" "http://www.w3.org/Graphics/SVG/1.1/DTD/svg11.dtd">
<!-- Creator: CorelDRAW 2020 (64 Bit) -->
<svg xmlns="http://www.w3.org/2000/svg" xml:space="preserve" width="91.44mm" height="91.44mm" version="1.1" style="shape-rendering:geometricPrecision; text-rendering:geometricPrecision; image-rendering:optimizeQuality; fill-rule:evenodd; clip-rule:evenodd"
viewBox="0 0 9144 9144"
 xmlns:xlink="http://www.w3.org/1999/xlink"
 xmlns:xodm="http://www.corel.com/coreldraw/odm/2003">
 <defs>
  <style type="text/css">
   <![CDATA[
    .fil1 {fill:#B7B7B6}
    .fil0 {fill:#E50400}
   ]]>
  </style>
   <clipPath id="id0">
    <rect x="1955.8" y="-2582.33" width="9025.46" height="13546.66"/>
   </clipPath>
 </defs>
 <g id="Camada_x0020_1">
  <metadata id="CorelCorpID_0Corel-Layer"/>
  <g style="clip-path:url(#id0)">
   <image x="1955.8" y="-2582.33" width="9025.46" height="13546.66" xlink:href="simone_pic_vid_Images\simone_pic_vid_ImgID1.png"/>
  </g>
  <g id="_1191666640">
   <path class="fil0" d="M-104.02 11425.66c1779.88,-2102.16 4859.62,-2384.11 7594.91,-1777.38 2092.12,464.08 3384.39,640.9 5489.16,-124.58 329.1,-119.69 -238.84,646.56 -302.09,711.75 -1231.54,1269.04 -4266.25,1522.18 -6023.47,1197.2 -2591,-479.19 -2618.66,-863.99 -5461.4,-179.8 -270.11,65.02 -1127.1,294.82 -1354.55,283.6l57.44 -110.79z"/>
   <path class="fil1" d="M6781.62 11461.43c184.16,32.15 398.63,56.65 635.05,72.55 13.2,0.9 26.53,1.52 39.84,2.58 1851.4,148.68 5062.58,-298.39 5581.88,-1720.84 208.07,-569.94 -216.62,-205.43 -683.35,17.86 -2498.4,1195.29 -4658.17,564.5 -7298.21,501.2 -728.48,-17.46 -2017.05,176.88 -2637.19,513.59l-372.76 226.05c1883.76,-454.74 2677.72,27.95 4734.74,387.01z"/>
  </g>
 </g>
</svg>
